<svg xmlns="http://www.w3.org/2000/svg" viewBox="0 0 2000 866.7" style="enable-background:new 0 0 2000 866.7" xml:space="preserve"><g><circle cx="1683.6" cy="316.4" style="fill:#ffd900" r="316.4"/><path d="M585.7 343.18c0 167.2-87.1 265.1-192.7 265.1-45.6 2.5-88-23.6-106.3-65.5a144.82 144.82 0 0 1-126.4 65.5c-60.9 0-130.3-33.2-130.3-156.5v-134.1c0-33.9-30-41.6-30-58.6v-2.3c.4-8.5 7-15.3 15.4-16.2l98.6-14.6c19.3-2.4 30.8.8 30.8 19.3l-1.5 252c-.8 40.8 13.9 67 41.6 67 56.3 0 84.8-84 84.8-154.1v-92.4c0-33.9-30.1-41.6-30.1-58.6v-2.4c.5-8.7 7.5-15.7 16.2-16.2l90.2-16.2c19.3-3.1 31.6 2.4 31.6 20.8l-2.4 249.7c-.8 43.2 11.6 69.4 42.4 69.4 54 0 108.7-84 108.7-164.1 0-66.3-70.1-70.1-70.1-129.5-1.1-25.4 18.6-46.8 44-47.8 2-.1 4.1 0 6.1.1 49.3-.1 79.4 43.9 79.4 120.2zM650.4 587.48v-3.1c0-19.3 29.3-25.4 29.3-58.6v-174.2c0-33.9-29.3-42.4-29.3-59.3v-2.4c0-6.9 6.2-10.8 16.2-16.2l96.3-47.7c19.3-9.3 31.6 1.5 31.6 15.4v284.4c0 33.1 32.4 39.3 32.4 58.6v3.1c0 7.7-6.9 13.1-17.7 13.1H667.3c-10 0-16.9-5.5-16.9-13.1zm10.8-479.4c1-38.2 32.7-68.3 70.9-67.4 1.8 0 3.6.2 5.4.4 37.2-3.8 70.5 23.4 74.3 60.6 3.8 37.2-23.4 70.5-60.6 74.3-4.5.5-9.1.5-13.7 0-38.1 3.9-72.1-23.9-76-62-.2-2-.3-4-.3-5.9zM882.3 587.48v-3.1c0-19.3 30.1-25.4 30.1-57.8v-379.1c0-34.7-30.1-42.4-30.1-58.6v-3.1c0-7.7 6.2-11.6 15.4-15.4l97.1-47.7c20.1-10 31.6.8 31.6 13.9v490.1c0 32.4 33.1 38.5 33.1 57.8v3.1c0 7.7-7.7 13.1-17.7 13.1H900c-10.7-.1-17.7-5.5-17.7-13.2zM1113.5 587.48v-3.1c0-19.3 30-25.4 30-57.8v-379.1c0-34.7-30-42.4-30-58.6v-3.1c0-7.7 6.2-11.6 15.4-15.4l97.1-47.7c20-10 31.6.8 31.6 13.9v490.1c0 32.4 33.1 38.5 33.1 57.8v3.1c0 7.7-7.7 13.1-17.7 13.1h-141.8c-10.8-.1-17.7-5.5-17.7-13.2z"/></g><path d="M675.637 731.269h45.9c6.2-.1 12.4.8 18.3 2.7 4.7 1.6 9.1 4.1 12.8 7.4 3.3 3 5.9 6.8 7.6 11 1.7 4.3 2.5 8.8 2.5 13.4 0 4-.8 8.1-2.4 11.8-1.4 3.3-3.3 6.3-5.7 8.9-2.1 2.4-4.6 4.4-7.3 5.9-2.2 1.3-4.6 2.2-7.2 2.6 3.3.5 6.5 1.3 9.5 2.5 7.6 2.8 13.7 8.5 17.2 15.8 2.2 4.8 3.2 10.1 3 15.3.2 6.3-1.1 12.5-4 18.1-2.6 4.7-6.3 8.7-10.8 11.7-4.9 3.1-10.4 5.3-16.1 6.3-6.6 1.2-13.2 1.8-19.9 1.8h-43.4v-135.2zm42.9 56.4c3 0 6-.4 8.9-1.1 2.9-.7 5.6-1.9 8.1-3.6 2.4-1.6 4.4-3.8 5.9-6.3 1.6-2.9 2.3-6.1 2.2-9.3.1-3.4-.6-6.8-2.2-9.8-1.4-2.4-3.5-4.5-5.9-5.9-2.5-1.4-5.3-2.4-8.1-2.8-3-.5-5.9-.7-8.9-.7h-24.2v39.5h24.2zm-.6 62c3.7 0 7.3-.2 11-.6 3.6-.4 7.1-1.3 10.4-2.8 3.1-1.5 5.8-3.7 7.8-6.6 4-7.4 4-16.4 0-23.8-1.9-2.9-4.5-5.4-7.5-7.2-3.1-1.8-6.5-3-10.1-3.5-3.5-.6-7-.9-10.6-.9h-24.6v45.4h23.6zM875.537 731.269h19.9l53 135.4h-21.7l-14-37.7h-55.6l-14 37.7h-20.5l52.9-135.4zm31.3 81-21.9-59.5-22.1 59.5h44zM1006.637 731.269h19.7l73.9 105.8v-105.8h19.1v135.4h-19.5l-74.1-106v106h-19.1v-135.4zM1190.737 731.269h19.3v61.5l56.6-61.5h22.3l-50.3 55.2 56.4 80.2h-23.3l-46.3-66.4-15.4 16.7v49.7h-19.3v-135.4z"/></svg>